<?xml version="1.0" encoding="UTF-8"?>
<svg id="Layer_1" data-name="Layer 1" xmlns="http://www.w3.org/2000/svg" viewBox="0 0 428.4 80.34">
  <defs>
    <style>
      .cls-1 {
        fill: #000;
        stroke-width: 0px;
      }
    </style>
  </defs>
  <path class="cls-1" d="M11.2,9.03c.24.1.49.33.75.69l40.49,54.19c-.09-.88-.13-1.74-.13-2.56V8.88h3.98v62.54h-2.17c-.68,0-1.22-.29-1.64-.88L11.82,16.26c.09.88.13,1.72.13,2.52v52.64h-3.94V8.88h2.21c.41,0,.74.05.97.15Z"/>
  <path class="cls-1" d="M147.25,8.88v3.76h-32.93v25.28h27.4v3.67h-27.4v26.08h32.93v3.76h-37.48V8.88h37.48Z"/>
  <path class="cls-1" d="M213.74,39.33l-21.57-30.46h4.46c.41,0,.71.09.91.27.19.18.36.38.51.62l19.01,27.4c.09-.24.18-.46.29-.69.1-.22.23-.45.37-.68l18.34-25.99c.18-.24.37-.45.57-.64.21-.19.46-.29.75-.29h4.33l-21.61,30.23,22.5,32.31h-4.46c-.41,0-.74-.13-.97-.37-.24-.25-.43-.5-.58-.73l-19.71-28.82c-.12.44-.33.87-.62,1.28l-19.36,27.54c-.21.27-.44.51-.7.75-.27.23-.58.35-.93.35h-4.11l22.59-32.09Z"/>
  <path class="cls-1" d="M311.38,68.19c3.01,0,5.69-.52,8.07-1.57,2.37-1.05,4.38-2.5,6.03-4.36s2.91-4.04,3.78-6.56c.87-2.52,1.3-5.24,1.3-8.16V8.88h4.51v38.67c0,3.45-.54,6.67-1.63,9.66-1.09,2.99-2.66,5.6-4.71,7.82-2.05,2.23-4.54,3.97-7.47,5.24-2.93,1.27-6.22,1.9-9.88,1.9s-6.95-.63-9.88-1.9c-2.93-1.27-5.42-3.01-7.47-5.24-2.05-2.22-3.62-4.83-4.71-7.82-1.09-2.99-1.63-6.21-1.63-9.66V8.88h4.55v38.63c0,2.92.44,5.64,1.31,8.15.87,2.52,2.12,4.71,3.76,6.56,1.64,1.86,3.64,3.32,6.01,4.38,2.37,1.06,5.06,1.59,8.06,1.59Z"/>
  <path class="cls-1" d="M417.6,16.48c-.27.5-.65.75-1.15.75-.38,0-.88-.27-1.49-.82-.6-.55-1.42-1.15-2.46-1.81-1.04-.67-2.33-1.27-3.88-1.83-1.55-.56-3.46-.84-5.74-.84s-4.28.33-6.01.97c-1.73.65-3.18,1.53-4.35,2.65-1.17,1.12-2.05,2.42-2.66,3.89-.61,1.47-.91,3.02-.91,4.64,0,2.12.45,3.87,1.35,5.26s2.09,2.56,3.56,3.54,3.15,1.79,5.02,2.45,3.8,1.32,5.78,1.97c1.97.65,3.9,1.36,5.77,2.14s3.55,1.76,5.02,2.94,2.66,2.63,3.56,4.35c.9,1.72,1.35,3.87,1.35,6.43s-.45,5.09-1.35,7.4c-.9,2.31-2.2,4.33-3.91,6.04-1.71,1.71-3.8,3.06-6.28,4.04s-5.31,1.48-8.49,1.48c-4.13,0-7.68-.73-10.65-2.19-2.97-1.46-5.58-3.45-7.82-5.99l1.24-1.94c.35-.44.77-.67,1.24-.67.27,0,.6.18,1.02.53.41.35.91.79,1.51,1.3.59.52,1.3,1.08,2.12,1.68.83.6,1.78,1.17,2.88,1.68,1.09.52,2.35.95,3.76,1.31,1.42.35,3.03.53,4.82.53,2.48,0,4.69-.37,6.64-1.13s3.59-1.78,4.93-3.07c1.34-1.3,2.37-2.84,3.08-4.62.71-1.78,1.06-3.69,1.06-5.73,0-2.21-.45-4.03-1.35-5.46s-2.09-2.62-3.56-3.58c-1.47-.96-3.15-1.76-5.02-2.41s-3.8-1.28-5.78-1.9c-1.98-.62-3.9-1.31-5.78-2.08-1.87-.77-3.55-1.75-5.02-2.94-1.48-1.19-2.67-2.68-3.56-4.46-.9-1.78-1.35-4.01-1.35-6.7,0-2.09.4-4.11,1.19-6.05.8-1.95,1.96-3.66,3.5-5.15s3.43-2.68,5.69-3.58c2.26-.9,4.83-1.35,7.73-1.35,3.24,0,6.16.51,8.74,1.55s4.93,2.61,7.06,4.73l-1.06,2.03Z"/>
</svg>