<?xml version="1.0" encoding="UTF-8"?>
<svg id="Layer_1" data-name="Layer 1" xmlns="http://www.w3.org/2000/svg" xmlns:xlink="http://www.w3.org/1999/xlink" viewBox="0 0 572.36 696.3">
  <defs>
    <style>
      .cls-1 {
        fill: url(#radial-gradient-5);
      }

      .cls-2 {
        fill: url(#radial-gradient-4);
      }

      .cls-3 {
        fill: url(#radial-gradient-3);
      }

      .cls-4 {
        fill: url(#radial-gradient-2);
      }

      .cls-5 {
        fill: url(#radial-gradient);
      }

      .cls-6 {
        fill: url(#linear-gradient);
      }

      .cls-7 {
        fill: #fff;
      }
    </style>
    <radialGradient id="radial-gradient" cx="263.85" cy="218.57" fx="263.85" fy="218.57" r="218.98" gradientTransform="translate(22.04 29.81)" gradientUnits="userSpaceOnUse">
      <stop offset=".1" stop-color="#666766"/>
      <stop offset=".63" stop-color="#454545"/>
      <stop offset="1" stop-color="#333"/>
    </radialGradient>
    <radialGradient id="radial-gradient-2" cx="261.36" cy="213.6" fx="261.36" fy="213.6" r="184.92" gradientTransform="translate(22.04 29.81)" gradientUnits="userSpaceOnUse">
      <stop offset=".1" stop-color="#e7e7e6"/>
      <stop offset=".28" stop-color="#d3d3d2"/>
      <stop offset=".76" stop-color="#a3a3a3"/>
      <stop offset="1" stop-color="#919191"/>
    </radialGradient>
    <linearGradient id="linear-gradient" x1="69.91" y1="248.4" x2="285.89" y2="248.4" gradientUnits="userSpaceOnUse">
      <stop offset=".1" stop-color="#dbdada"/>
      <stop offset="1" stop-color="#fff"/>
    </linearGradient>
    <radialGradient id="radial-gradient-3" cx="261.36" cy="218.57" fx="261.36" fy="218.57" r="218.92" gradientTransform="translate(22.04 29.81)" gradientUnits="userSpaceOnUse">
      <stop offset=".1" stop-color="#4d4d4d"/>
      <stop offset=".53" stop-color="#383838"/>
      <stop offset="1" stop-color="#262626"/>
    </radialGradient>
    <radialGradient id="radial-gradient-4" cx="258.88" cy="221.05" fx="258.88" fy="221.05" r="218.58" gradientTransform="translate(22.04 29.81)" gradientUnits="userSpaceOnUse">
      <stop offset=".1" stop-color="#e6e6e5"/>
      <stop offset=".49" stop-color="#a8a8a7"/>
      <stop offset=".83" stop-color="#787978"/>
      <stop offset="1" stop-color="#666766"/>
    </radialGradient>
    <radialGradient id="radial-gradient-5" cx="261.36" cy="221.06" fx="261.36" fy="221.06" r="218.17" gradientTransform="translate(22.04 29.81)" gradientUnits="userSpaceOnUse">
      <stop offset=".1" stop-color="#fff"/>
      <stop offset=".14" stop-color="#fbfbfb"/>
      <stop offset=".72" stop-color="#cbcbcb"/>
      <stop offset="1" stop-color="#b9b9b9"/>
    </radialGradient>
  </defs>
  <g>
    <polygon class="cls-5" points="285.89 248.4 501.89 372.6 501.89 372.6 501.89 124.2 285.89 248.4"/>
    <polygon class="cls-4" points="285.89 248.4 285.89 0 285.89 0 69.89 124.2 285.89 248.4"/>
    <polygon class="cls-6" points="69.91 124.21 69.91 372.59 285.89 248.4 285.89 248.4 285.89 248.4 69.91 124.21"/>
    <polygon class="cls-3" points="285.89 248.4 285.89 248.4 285.89 248.4 285.89 248.4 285.89 248.4 285.89 496.8 285.89 496.8 501.89 372.6 285.89 248.4"/>
    <polygon class="cls-2" points="285.89 248.4 285.89 248.4 501.89 124.2 501.89 124.2 285.89 0 285.89 248.4"/>
    <polygon class="cls-1" points="285.89 496.8 285.89 248.4 69.91 372.59 69.91 372.59 69.89 372.6 69.89 372.6 285.89 496.8"/>
  </g>
  <g>
    <path class="cls-7" d="M0,597.73h7.06l64.07,85.66v-85.66h7.06v96.95h-7.06L7.06,609.02v85.66H0v-96.95Z"/>
    <path class="cls-7" d="M147.61,604.64v37.26h53.62v6.77h-53.62v39.09h58.42v6.91h-65.62v-96.95h65.62v6.91h-58.42Z"/>
    <path class="cls-7" d="M291.83,646.27l36.97,48.4h-8.75l-32.6-42.76-32.74,42.76h-8.75l37.11-48.4-37.11-48.54h8.75l32.74,42.76,32.74-42.76h8.75l-37.11,48.54Z"/>
    <path class="cls-7" d="M393.71,690.37c-5.83-3.43-10.4-8.19-13.69-14.25-3.3-6.07-4.94-12.96-4.94-20.67v-58.56h7.06v58.56c0,6.4,1.34,12.14,4.02,17.22,2.68,5.08,6.42,9.03,11.22,11.85,4.8,2.82,10.21,4.23,16.23,4.23s11.55-1.41,16.3-4.23c4.75-2.82,8.47-6.77,11.15-11.85,2.68-5.08,4.02-10.82,4.02-17.22v-58.56h7.06v58.56c0,7.71-1.65,14.6-4.94,20.67-3.29,6.07-7.86,10.82-13.69,14.25-5.83,3.43-12.47,5.15-19.9,5.15s-14.06-1.72-19.9-5.15Z"/>
    <path class="cls-7" d="M518.25,692.28c-6.63-2.68-12.4-6.47-17.29-11.36l4.37-5.5c4.42,4.42,9.57,7.88,15.45,10.37,5.88,2.49,12.07,3.74,18.56,3.74,5.17,0,9.71-.85,13.62-2.54,3.9-1.69,6.94-4.04,9.1-7.06,2.16-3.01,3.25-6.35,3.25-10.02,0-5.27-2.21-9.5-6.63-12.7-4.42-3.2-11.67-5.97-21.73-8.33-11.1-2.54-19.17-5.72-24.2-9.53-5.03-3.81-7.55-9.05-7.55-15.73,0-5.27,1.36-10,4.09-14.18,2.73-4.19,6.49-7.46,11.29-9.81,4.8-2.35,10.21-3.53,16.23-3.53s12.16,1.2,17.85,3.6c5.69,2.4,10.94,5.81,15.73,10.23l-4.38,5.5c-4.14-3.95-8.77-7.03-13.9-9.24-5.13-2.21-10.37-3.32-15.73-3.32-4.61,0-8.75.87-12.42,2.61-3.67,1.74-6.52,4.14-8.54,7.2-2.02,3.06-3.03,6.52-3.03,10.37,0,4.71,2.19,8.47,6.56,11.29,4.37,2.82,11.55,5.46,21.52,7.9,11.01,2.63,19.07,6.02,24.2,10.16,5.13,4.14,7.69,9.79,7.69,16.93,0,5.08-1.36,9.67-4.09,13.76-2.73,4.09-6.59,7.32-11.57,9.67-4.99,2.35-10.82,3.53-17.5,3.53-7.34,0-14.32-1.34-20.96-4.02Z"/>
  </g>
</svg>